HIERARCHY
ROOT joint_Root
{
	OFFSET 0.0 0.0 0.0
	CHANNELS 6 Xposition Yposition Zposition Zrotation Xrotation Yrotation 
	JOINT Hips
	{
		OFFSET 4.5925 91.4895 -427.239
		CHANNELS 6 Xposition Yposition Zposition Zrotation Xrotation Yrotation 
		JOINT Spine
		{
			OFFSET 15.7357 0.0 0.0
			CHANNELS 6 Xposition Yposition Zposition Zrotation Xrotation Yrotation 
			JOINT Chest
			{
				OFFSET 8.98455 -0.406207 0.0
				CHANNELS 6 Xposition Yposition Zposition Zrotation Xrotation Yrotation 
				JOINT Neck
				{
					OFFSET 16.3773 0.0 0.0
					CHANNELS 6 Xposition Yposition Zposition Zrotation Xrotation Yrotation 
					JOINT Head
					{
						OFFSET 6.45672 0.0 0.0
						CHANNELS 6 Xposition Yposition Zposition Zrotation Xrotation Yrotation 
						End Site
						{
							OFFSET 0.0 0.0 0.0
						}
					}
				}
				JOINT Shoulder_L
				{
					OFFSET 12.9942 -0.242716 4.98039
					CHANNELS 6 Xposition Yposition Zposition Zrotation Xrotation Yrotation 
					JOINT UpperArm_L
					{
						OFFSET 5.34809 0.0 0.0
						CHANNELS 6 Xposition Yposition Zposition Zrotation Xrotation Yrotation 
						JOINT LowerArm_L
						{
							OFFSET 24.3286 1.87007e-05 0.0
							CHANNELS 6 Xposition Yposition Zposition Zrotation Xrotation Yrotation 
							JOINT Hand_L
							{
								OFFSET 22.2916 0.0 0.0
								CHANNELS 6 Xposition Yposition Zposition Zrotation Xrotation Yrotation 
								End Site
								{
									OFFSET 0.0 0.0 0.0
								}
							}
						}
					}
				}
				JOINT Shoulder_R
				{
					OFFSET 12.9945 -0.242716 -4.98039
					CHANNELS 6 Xposition Yposition Zposition Zrotation Xrotation Yrotation 
					JOINT UpperArm_R
					{
						OFFSET -5.34813 0.0 0.0
						CHANNELS 6 Xposition Yposition Zposition Zrotation Xrotation Yrotation 
						JOINT LowerArm_R
						{
							OFFSET -24.3289 0.000322201 0.0
							CHANNELS 6 Xposition Yposition Zposition Zrotation Xrotation Yrotation 
							JOINT Hand_R
							{
								OFFSET -22.2915 -0.000108084 0.0
								CHANNELS 6 Xposition Yposition Zposition Zrotation Xrotation Yrotation 
								End Site
								{
									OFFSET 0.0 0.0 0.0
								}
							}
						}
					}
				}
			}
		}
		JOINT UpperLeg_L
		{
			OFFSET -2.19248 -6.46944 0.0
			CHANNELS 6 Xposition Yposition Zposition Zrotation Xrotation Yrotation 
			JOINT LowerLeg_L
			{
				OFFSET 39.0811 0.0 -1.23785e-05
				CHANNELS 6 Xposition Yposition Zposition Zrotation Xrotation Yrotation 
				JOINT Foot_L
				{
					OFFSET 40.9854 0.0 -1.26872e-05
					CHANNELS 6 Xposition Yposition Zposition Zrotation Xrotation Yrotation 
					JOINT Toes_L
					{
						OFFSET 11.7543 0.0 0.0
						CHANNELS 6 Xposition Yposition Zposition Zrotation Xrotation Yrotation 
						End Site
						{
							OFFSET 0.0 0.0 0.0
						}
					}
				}
			}
		}
		JOINT UpperLeg_R
		{
			OFFSET -2.19251 6.46944 0.0
			CHANNELS 6 Xposition Yposition Zposition Zrotation Xrotation Yrotation 
			JOINT LowerLeg_R
			{
				OFFSET -39.0811 -0.00228153 -0.0401928
				CHANNELS 6 Xposition Yposition Zposition Zrotation Xrotation Yrotation 
				JOINT Foot_R
				{
					OFFSET -40.9854 0.0 0.0
					CHANNELS 6 Xposition Yposition Zposition Zrotation Xrotation Yrotation 
					JOINT Toes_R
					{
						OFFSET -11.7543 0.0 0.0
						CHANNELS 6 Xposition Yposition Zposition Zrotation Xrotation Yrotation 
						End Site
						{
							OFFSET 0.0 0.0 0.0
						}
					}
				}
			}
		}
	}
}
MOTION
Frames:	5
Frame Time:	0.0333333
0.000000 0.000000 0.000000 0.000000 0.000000 -0.000000 -0.208752 90.213500 -1.091690 89.184200 -4.062260 11.790900 15.735700 0.000005 -0.000001 88.365400 78.741600 -88.417500 8.984550 -0.406207 -0.000000 14.741900 -0.637314 -0.021830 16.377300 -0.000001 -0.000001 5.019340 -3.469190 1.864110 6.456720 -0.000001 -0.000000 -2.559180 -2.295730 1.467680 12.994200 -0.242716 4.980390 -91.302100 6.321640 -78.336200 5.348090 -0.000007 -0.000001 -57.782300 36.447400 -25.881700 24.328600 0.000019 0.000005 9.665360 21.551500 -24.874000 22.291600 -0.000001 0.000005 8.290550 5.283480 0.530985 12.994500 -0.242716 -4.980390 88.948100 10.955200 -84.481300 -5.348130 -0.000001 -0.000004 -58.260500 36.175000 -20.535900 -24.328900 0.000322 -0.000009 1.598800 4.300200 -20.429700 -22.291500 -0.000108 -0.000004 16.392000 5.426810 -3.829950 -2.192480 -6.469440 -0.000000 -174.515000 -13.516400 -0.830435 39.081100 -0.000007 -0.000012 -0.215133 0.313518 34.457900 40.985400 -0.000006 -0.000013 0.187230 2.443080 -71.487100 11.754300 -0.000000 0.000003 -0.000248 -0.002218 -16.660700 -2.192510 6.469440 -0.000001 173.579000 19.078300 -179.778000 -39.081100 -0.002282 -0.040193 -0.257521 0.394930 33.441500 -40.985400 0.000008 0.000006 2.958660 12.567600 -71.263700 -11.754300 -0.000006 -0.000006 -0.002290 -0.032292 -17.886200
0.000000 0.000000 0.000000 0.000000 0.000000 -0.000000 -0.237602 90.211200 -1.098360 89.163500 -4.023860 11.770500 15.735700 0.000005 -0.000001 88.340300 78.752300 -88.377100 8.984550 -0.406207 -0.000000 14.720400 -0.645523 0.009657 16.377300 -0.000001 -0.000001 5.028320 -3.502570 1.870720 6.456720 -0.000001 -0.000000 -2.466720 -2.325900 1.432610 12.994200 -0.242716 4.980390 -91.305100 6.325250 -78.316400 5.348090 -0.000007 -0.000001 -57.552900 36.230600 -25.952200 24.328600 0.000019 0.000005 10.076200 21.472200 -25.894100 22.291600 -0.000001 0.000005 8.251230 5.284440 0.504524 12.994500 -0.242716 -4.980390 88.952200 10.929600 -84.490100 -5.348130 -0.000001 -0.000004 -58.280000 36.164100 -20.513500 -24.328900 0.000322 -0.000009 1.595430 4.296110 -20.408000 -22.291500 -0.000108 -0.000004 16.372200 5.427380 -3.849380 -2.192480 -6.469440 -0.000000 -174.494000 -13.463800 -0.881885 39.081100 -0.000007 -0.000012 -0.215120 0.313171 34.485900 40.985400 -0.000006 -0.000013 0.165507 2.433370 -71.483600 11.754300 -0.000000 0.000003 -0.000238 -0.002144 -16.658000 -2.192510 6.469440 -0.000001 173.621000 19.080600 -179.794000 -39.081100 -0.002282 -0.040193 -0.257880 0.395602 33.433000 -40.985400 0.000008 0.000006 2.902040 12.556700 -71.247800 -11.754300 -0.000006 -0.000006 -0.002390 -0.033499 -17.935300
0.000000 0.000000 0.000000 0.000000 0.000000 -0.000000 -0.257662 90.213800 -1.101920 89.186900 -4.002870 11.809000 15.735700 0.000005 -0.000001 88.379100 78.736900 -88.414300 8.984550 -0.406207 -0.000000 14.751600 -0.631240 0.011219 16.377300 -0.000001 -0.000001 5.030700 -3.525780 1.879680 6.456720 -0.000001 -0.000000 -2.446600 -2.380800 1.390540 12.994200 -0.242716 4.980390 -91.321500 6.361160 -78.238900 5.348090 -0.000007 -0.000001 -57.244700 35.903100 -26.142100 24.328600 0.000019 0.000005 10.452300 21.238100 -26.988000 22.291600 -0.000001 0.000005 8.451420 5.287740 0.413628 12.994500 -0.242716 -4.980390 88.953700 10.919100 -84.492700 -5.348130 -0.000001 -0.000004 -58.281900 36.117000 -20.499400 -24.328900 0.000322 -0.000009 1.603550 4.316270 -20.415600 -22.291500 -0.000108 -0.000004 16.459600 5.426660 -3.824870 -2.192480 -6.469440 -0.000000 -174.497000 -13.464400 -0.835747 39.081100 -0.000007 -0.000012 -0.212005 0.308928 34.460700 40.985400 -0.000006 -0.000013 0.157559 2.449720 -71.464400 11.754300 -0.000000 0.000003 -0.000232 -0.002100 -16.656400 -2.192510 6.469440 -0.000001 173.601000 19.129700 -179.757000 -39.081100 -0.002282 -0.040193 -0.256308 0.393096 33.441400 -40.985400 0.000008 0.000006 2.939610 12.530100 -71.259000 -11.754300 -0.000006 -0.000006 -0.002161 -0.030711 -17.821900
0.000000 0.000000 0.000000 0.000000 0.000000 -0.000000 -0.280697 90.207100 -1.111580 89.193600 -3.961490 11.837300 15.735700 0.000005 -0.000001 88.397200 78.718500 -88.430200 8.984550 -0.406207 -0.000000 14.788500 -0.625039 0.015211 16.377300 -0.000001 -0.000001 5.020740 -3.571900 1.898510 6.456720 -0.000001 -0.000000 -2.469290 -2.417390 1.355330 12.994200 -0.242716 4.980390 -91.320800 6.322190 -78.174500 5.348090 -0.000007 -0.000001 -56.951000 35.472400 -26.390000 24.328600 0.000019 0.000005 10.799300 20.842200 -28.196400 22.291600 -0.000001 0.000005 8.594340 5.289900 0.353712 12.994500 -0.242716 -4.980390 88.951500 10.902700 -84.472900 -5.348130 -0.000001 -0.000004 -58.306300 36.011600 -20.511300 -24.328900 0.000322 -0.000009 1.558140 4.187740 -20.442800 -22.291500 -0.000108 -0.000004 16.198800 5.425670 -3.790950 -2.192480 -6.469440 -0.000000 -174.486000 -13.420400 -0.837878 39.081100 -0.000007 -0.000012 -0.215649 0.313867 34.492200 40.985400 -0.000006 -0.000013 0.142680 2.460450 -71.464700 11.754300 -0.000000 0.000003 -0.000231 -0.002088 -16.656000 -2.192510 6.469440 -0.000001 173.587000 19.123200 -179.743000 -39.081100 -0.002282 -0.040193 -0.260360 0.398752 33.473000 -40.985400 0.000008 0.000006 2.923870 12.534200 -71.271400 -11.754300 -0.000006 -0.000006 -0.002365 -0.033201 -17.923200
0.000000 0.000000 0.000000 0.000000 0.000000 -0.000000 -0.306178 90.208400 -1.132410 89.200700 -3.900550 11.857800 15.735700 0.000005 -0.000001 88.430000 78.704800 -88.452800 8.984550 -0.406207 -0.000000 14.816300 -0.612409 0.033961 16.377300 -0.000001 -0.000001 5.034420 -3.604030 1.885380 6.456720 -0.000001 -0.000000 -2.507710 -2.493620 1.340490 12.994200 -0.242716 4.980390 -91.326500 6.319330 -78.120100 5.348090 -0.000007 -0.000001 -56.569300 34.964500 -26.694600 24.328600 0.000019 0.000005 11.236600 20.487900 -29.579500 22.291600 -0.000001 0.000005 8.748370 5.293170 0.263165 12.994500 -0.242716 -4.980390 88.948200 10.910500 -84.459700 -5.348130 -0.000001 -0.000004 -58.240100 36.024300 -20.528400 -24.328900 0.000322 -0.000009 1.581460 4.253500 -20.429700 -22.291500 -0.000108 -0.000004 16.268200 5.427340 -3.847850 -2.192480 -6.469440 -0.000000 -174.483000 -13.382900 -0.828757 39.081100 -0.000007 -0.000012 -0.214422 0.312164 34.485100 40.985400 -0.000006 -0.000013 0.131469 2.472860 -71.447100 11.754300 -0.000000 0.000003 -0.000251 -0.002241 -16.661500 -2.192510 6.469440 -0.000001 173.588000 19.173300 -179.724000 -39.081100 -0.002282 -0.040193 -0.259211 0.396988 33.474800 -40.985400 0.000008 0.000006 2.928780 12.500300 -71.269800 -11.754300 -0.000006 -0.000006 -0.002300 -0.032411 -17.891100
